#!OML:ASF H:\BreakDance\Project 1\Capture day 1\Session 1\Male.ASF
:FULLY-SPECIFIED
:DEGREES
154
root 6.56084 15.9677 0.675827 -68.4907 -86.9881 67.4005
lowerback -8.12849 0.894577 -0.839727
upperback 3.16669 1.51035 -3.67331
thorax 7.99893 0.777655 -3.19264
lowerneck -3.93213 -1.2192 0.224248
upperneck 17.1072 -2.83519 4.83426
head 5.87986 -1.17139 1.29398
rclavicle -3.37934e-015 3.18055e-015
rhumerus -29.7717 4.12811 -92.2402
rradius 50.7265
rwrist 13.379
rhand -34.0586 -27.7213
rfingers 7.12502
rthumb -7.23609 -57.5776
lclavicle -3.37934e-015 3.18055e-015
lhumerus -24.3188 -17.8775 84.9499
lradius 45.5181
lwrist -10.6171
lhand -34.0303 -35.1287
lfingers 7.12502
lthumb -7.20885 -5.27151
rfemur -15.8891 3.03849 9.94701
rtibia 46.2576
rfoot -26.0025 -17.6632
rtoes -4.04775
lfemur -16.6995 4.01494 -14.8797
ltibia 43.5204
lfoot -29.8725 13.8824
ltoes -31.0921
155
root 6.57003 15.965 0.680771 -64.8671 -86.9517 63.834
lowerback -7.97087 0.866595 -0.779168
upperback 3.19028 1.46053 -3.64481
thorax 7.93063 0.755788 -3.20482
lowerneck -3.78938 -1.21042 0.235398
upperneck 16.7815 -2.77117 4.70478
head 5.7493 -1.15187 1.25655
rclavicle -1.11071e-014 -1.66979e-014
rhumerus -29.7616 4.02674 -92.1893
rradius 50.6273
rwrist 13.2063
rhand -34.0057 -27.7559
rfingers 7.12502
rthumb -7.18505 -57.614
lclavicle -1.11071e-014 -1.66979e-014
lhumerus -24.0048 -18.4636 84.9829
lradius 44.7496
lwrist -10.745
lhand -33.7561 -35.6404
lfingers 7.12502
lthumb -6.94412 -5.77433
rfemur -15.9556 2.91533 9.96708
rtibia 46.2926
rfoot -26.0098 -17.7038
rtoes -4.17496
lfemur -16.9443 4.18354 -14.828
ltibia 43.6636
lfoot -29.8107 13.6019
ltoes -31.1933
156
root 6.579 15.9619 0.68709 -61.0121 -86.9208 60.0424
lowerback -7.82023 0.839688 -0.682032
upperback 3.2196 1.40834 -3.60403
thorax 7.87293 0.734507 -3.22482
lowerneck -3.61775 -1.20372 0.244393
upperneck 16.409 -2.7008 4.53949
head 5.599 -1.13206 1.20896
rclavicle -1.04362e-015 -3.18055e-015
rhumerus -29.7624 3.93192 -92.1249
rradius 50.5289
rwrist 12.9892
rhand -33.9452 -27.9141
rfingers 7.12502
rthumb -7.1267 -57.7741
lclavicle -1.04362e-015 -3.18055e-015
lhumerus -23.6873 -19.1376 85.0397
lradius 43.9684
lwrist -10.8617
lhand -33.3564 -36.0326
lfingers 7.12502
lthumb -6.55826 -6.15414
rfemur -16.0217 2.78096 10.0054
rtibia 46.3232
rfoot -26.0272 -17.7288
rtoes -4.24709
lfemur -17.2119 4.34988 -14.7595
ltibia 43.8206
lfoot -29.7326 13.3485
ltoes -31.3386
157
root 6.58756 15.9585 0.694943 -56.8465 -86.8921 55.9472
lowerback -7.6814 0.80529 -0.554359
upperback 3.25372 1.34283 -3.54421
thorax 7.82658 0.707979 -3.24361
lowerneck -3.44504 -1.18433 0.236694
upperneck 16.0157 -2.60645 4.34454
head 5.44189 -1.10278 1.15646
rclavicle -8.54774e-015 1.82882e-014
rhumerus -29.774 3.87154 -92.0462
rradius 50.4225
rwrist 12.7242
rhand -33.8893 -28.0941
rfingers 7.12502
rthumb -7.07272 -57.956
lclavicle -8.54774e-015 1.82882e-014
lhumerus -23.3728 -19.8713 85.1236
lradius 43.1857
lwrist -10.9577
lhand -32.8596 -36.309
lfingers 7.12502
lthumb -6.07869 -6.4162
rfemur -16.0852 2.63507 10.0627
rtibia 46.3466
rfoot -26.0487 -17.7454
rtoes -4.27655
lfemur -17.4991 4.52137 -14.6735
ltibia 43.9916
lfoot -29.6386 13.109
ltoes -31.5201
158
root 6.59548 15.9551 0.704168 -52.4772 -86.8502 51.6572
lowerback -7.55591 0.757891 -0.415537
upperback 3.28779 1.25876 -3.47026
thorax 7.78658 0.67265 -3.2561
lowerneck -3.28167 -1.14287 0.221781
upperneck 15.618 -2.47912 4.12431
head 5.28477 -1.05839 1.09917
rclavicle 7.85199e-015 -1.59028e-014
rhumerus -29.7998 3.85627 -91.96
rradius 50.2995
rwrist 12.4163
rhand -33.8351 -28.2143
rfingers 7.12502
rthumb -7.02042 -58.0779
lclavicle 7.85199e-015 -1.59028e-014
lhumerus -23.0708 -20.6365 85.2314
lradius 42.4026
lwrist -11.018
lhand -32.282 -36.4742
lfingers 7.12502
lthumb -5.52096 -6.56609
rfemur -16.1489 2.48865 10.1265
rtibia 46.3642
rfoot -26.0731 -17.7665
rtoes -4.26553
lfemur -17.8011 4.69014 -14.5847
ltibia 44.1722
lfoot -29.5382 12.8687
ltoes -31.6928
159
root 6.60275 15.9516 0.71447 -48.3108 -86.7668 47.5819
lowerback -7.44325 0.705659 -0.287782
upperback 3.31539 1.17047 -3.40932
thorax 7.74682 0.634827 -3.27651
lowerneck -3.14368 -1.08556 0.228242
upperneck 15.2444 -2.33543 3.89679
head 5.13968 -1.00396 1.03676
rclavicle -1.09829e-014 1.03368e-014
rhumerus -29.8486 3.84016 -91.8835
rradius 50.1588
rwrist 12.09
rhand -33.7515 -28.2374
rfingers 7.12502
rthumb -6.93965 -58.1037
lclavicle -1.09829e-014 1.03368e-014
lhumerus -22.7884 -21.4574 85.3475
lradius 41.6257
lwrist -11.0304
lhand -31.6499 -36.5543
lfingers 7.12502
lthumb -4.91064 -6.63117
rfemur -16.2176 2.34469 10.1623
rtibia 46.3784
rfoot -26.0967 -17.8031
rtoes -4.24399
lfemur -18.1141 4.84247 -14.5289
ltibia 44.3555
lfoot -29.4405 12.6165
ltoes -31.8175
160
root 6.60944 15.9483 0.725612 -44.7079 -86.6463 44.0849
lowerback -7.3449 0.670168 -0.159642
upperback 3.32768 1.10684 -3.38782
thorax 7.70131 0.609749 -3.3353
lowerneck -3.02407 -1.03135 0.29249
upperneck 14.9117 -2.20763 3.67687
head 5.01105 -0.952845 0.966063
rclavicle -3.52843e-015 -1.74931e-014
rhumerus -29.9394 3.74594 -91.8332
rradius 50.003
rwrist 11.767
rhand -33.6095 -28.1832
rfingers 7.12502
rthumb -6.80257 -58.0539
lclavicle -3.52843e-015 -1.74931e-014
lhumerus -22.5405 -22.3852 85.4557
lradius 40.8679
lwrist -10.9873
lhand -30.9636 -36.5663
lfingers 7.12502
lthumb -4.24796 -6.62892
rfemur -16.2983 2.21753 10.1634
rtibia 46.3895
rfoot -26.1182 -17.8645
rtoes -4.23819
lfemur -18.4342 4.97425 -14.5152
ltibia 44.5338
lfoot -29.3475 12.3576
ltoes -31.8817
161
root 6.61538 15.9456 0.737359 -41.8314 -86.5097 41.3266
lowerback -7.26456 0.662924 -0.0269364
upperback 3.32375 1.08305 -3.40792
thorax 7.65231 0.605127 -3.43513
lowerneck -2.90707 -0.994434 0.422992
upperneck 14.6114 -2.11505 3.46986
head 4.89378 -0.914469 0.886502
rclavicle -3.52843e-015 2.14687e-014
rhumerus -30.0722 3.5559 -91.8087
rradius 49.8222
rwrist 11.455
rhand -33.4149 -28.0823
rfingers 7.12502
rthumb -6.61475 -57.959
lclavicle -3.52843e-015 2.14687e-014
lhumerus -22.3399 -23.4057 85.5522
lradius 40.1512
lwrist -10.9451
lhand -30.2015 -36.4894
lfingers 7.12502
lthumb -3.51208 -6.53858
rfemur -16.3894 2.13213 10.1393
rtibia 46.3945
rfoot -26.1409 -17.9556
rtoes -4.25168
lfemur -18.7516 5.09134 -14.5356
ltibia 44.7013
lfoot -29.2603 12.1043
ltoes -31.9191
162
root 6.62022 15.9434 0.749744 -39.661 -86.3731 39.2774
lowerback -7.20641 0.677162 0.0952439
upperback 3.31611 1.09078 -3.44949
thorax 7.61457 0.615855 -3.54745
lowerneck -2.72304 -0.956943 0.535833
upperneck 14.2626 -2.03134 3.35334
head 4.75199 -0.877588 0.837873
rclavicle -1.09829e-014 1.98785e-014
rhumerus -30.2157 3.31346 -91.793
rradius 49.5954
rwrist 11.156
rhand -33.1724 -27.9543
rfingers 7.12502
rthumb -6.38061 -57.8382
lclavicle -1.09829e-014 1.98785e-014
lhumerus -22.1822 -24.4547 85.6489
lradius 39.4854
lwrist -10.9071
lhand -29.334 -36.3056
lfingers 7.12502
lthumb -2.67427 -6.34261
rfemur -16.4776 2.09476 10.0965
rtibia 46.3875
rfoot -26.1635 -18.071
rtoes -4.298
lfemur -19.051 5.20549 -14.5823
ltibia 44.8544
lfoot -29.1822 11.8671
ltoes -31.9831
